<svg width="331" height="113" viewBox="0 0 331 113" fill="none" xmlns="http://www.w3.org/2000/svg">
<path d="M60.512 64.64C54.5813 64.64 49.3973 62.336 44.96 57.728C40.5653 53.12 38.368 47.7013 38.368 41.472C38.368 34.5173 40.416 28.864 44.512 24.512C48.608 20.16 53.7067 17.984 59.808 17.984C64.8 17.984 68.9813 19.2853 72.352 21.888C75.7653 24.4907 77.472 27.1147 77.472 29.76C77.472 30.5707 77.216 31.232 76.704 31.744C76.192 32.256 75.5307 32.512 74.72 32.512C73.8667 32.512 73.056 32.1067 72.288 31.296C71.5627 30.4853 70.8373 29.504 70.112 28.352C69.3867 27.1573 68.5547 25.984 67.616 24.832C66.72 23.6373 65.4613 22.6347 63.84 21.824C62.2187 21.0133 60.32 20.608 58.144 20.608C54.2187 20.608 50.8907 22.2933 48.16 25.664C45.4293 28.992 44.064 33.1093 44.064 38.016C44.064 44.3733 45.856 49.7493 49.44 54.144C53.0667 58.5387 57.2693 60.736 62.048 60.736C66.144 60.736 69.472 59.8187 72.032 57.984V46.912C72.032 46.3147 71.7973 45.824 71.328 45.44C70.9013 45.056 70.4107 44.7787 69.856 44.608C69.3013 44.4373 68.7893 44.2453 68.32 44.032C67.8933 43.8187 67.68 43.6053 67.68 43.392V43.136C67.68 42.5387 68.128 42.24 69.024 42.24L79.968 42.304C80.8213 42.304 81.248 42.5813 81.248 43.136V43.392C81.248 43.6053 81.056 43.8187 80.672 44.032C80.288 44.2453 79.84 44.4373 79.328 44.608C78.8587 44.7787 78.432 45.056 78.048 45.44C77.664 45.824 77.472 46.3147 77.472 46.912V56.832C77.472 57.984 76.9173 59.008 75.808 59.904C72.0107 63.0613 66.912 64.64 60.512 64.64ZM110.985 58.88C111.07 59.776 111.305 60.48 111.689 60.992C112.073 61.4613 112.478 61.76 112.905 61.888C113.331 61.9733 113.715 62.1013 114.057 62.272C114.398 62.4427 114.569 62.6987 114.569 63.04C114.569 63.936 113.203 64.384 110.473 64.384C108.937 64.384 107.806 64.1067 107.081 63.552C106.355 62.9547 105.929 61.824 105.801 60.16C104.179 63.1467 101.107 64.64 96.5845 64.64C93.0005 64.64 90.1205 63.7867 87.9445 62.08C85.7685 60.3733 84.6805 58.0053 84.6805 54.976C84.6378 51.9893 85.7045 49.664 87.8805 48C90.0992 46.336 92.9365 45.504 96.3925 45.504C99.8058 45.504 102.43 46.3573 104.265 48.064L104.137 46.336C103.753 42.4107 102.963 39.488 101.769 37.568C100.574 35.648 98.7392 34.688 96.2645 34.688C94.7712 34.688 93.5338 35.072 92.5525 35.84C91.5712 36.608 90.8885 37.44 90.5045 38.336C90.1632 39.232 89.7365 40.064 89.2245 40.832C88.7125 41.6 88.1152 41.984 87.4325 41.984C86.6645 41.984 86.0458 41.7707 85.5765 41.344C85.1498 40.9173 84.9365 40.3413 84.9365 39.616C84.9365 37.824 85.9818 36.224 88.0725 34.816C90.2058 33.3653 92.9365 32.64 96.2645 32.64C100.147 32.64 103.241 33.8347 105.545 36.224C107.891 38.5707 109.278 41.8773 109.705 46.144L110.985 58.88ZM97.9925 62.592C100.083 62.592 101.79 61.9307 103.113 60.608C104.435 59.2427 105.054 57.5573 104.969 55.552L104.713 52.672C104.371 51.136 103.561 49.8987 102.281 48.96C101.043 48.0213 99.5072 47.552 97.6725 47.552C95.4965 47.552 93.7258 48.1707 92.3605 49.408C90.9952 50.6453 90.3125 52.2453 90.3125 54.208C90.3125 56.5973 91.0165 58.6027 92.4245 60.224C93.8752 61.8027 95.7312 62.592 97.9925 62.592ZM132.992 32.64C134.826 32.64 136.256 33.1093 137.28 34.048C138.346 34.9867 138.88 36.16 138.88 37.568C138.88 39.5733 138.026 40.576 136.32 40.576C135.594 40.576 135.018 40.3413 134.592 39.872C134.165 39.4027 133.866 38.8907 133.696 38.336C133.568 37.7813 133.248 37.2693 132.736 36.8C132.224 36.3307 131.52 36.096 130.624 36.096C128.917 36.096 127.573 36.9493 126.592 38.656C125.653 40.32 125.184 42.4107 125.184 44.928V59.52C125.184 60.3733 125.632 61.0987 126.528 61.696C127.424 62.2507 127.872 62.6773 127.872 62.976V63.232C127.872 63.744 127.445 64 126.592 64H118.656C117.802 64 117.376 63.744 117.376 63.232V62.976C117.376 62.6773 117.76 62.2507 118.528 61.696C119.338 61.0987 119.744 60.3733 119.744 59.52V40.064C119.744 39.168 119.317 38.4 118.464 37.76C117.61 37.12 117.184 36.6507 117.184 36.352V36.224C117.184 35.7973 117.504 35.4133 118.144 35.072L123.008 32.896C124.117 32.384 124.672 32.6827 124.672 33.792V38.912C126.122 34.7307 128.896 32.64 132.992 32.64ZM167.36 58.88C167.445 59.776 167.68 60.48 168.064 60.992C168.448 61.4613 168.853 61.76 169.28 61.888C169.706 61.9733 170.09 62.1013 170.432 62.272C170.773 62.4427 170.944 62.6987 170.944 63.04C170.944 63.936 169.578 64.384 166.848 64.384C165.312 64.384 164.181 64.1067 163.456 63.552C162.73 62.9547 162.304 61.824 162.176 60.16C160.554 63.1467 157.482 64.64 152.96 64.64C149.376 64.64 146.496 63.7867 144.32 62.08C142.144 60.3733 141.056 58.0053 141.056 54.976C141.013 51.9893 142.08 49.664 144.256 48C146.474 46.336 149.312 45.504 152.768 45.504C156.181 45.504 158.805 46.3573 160.64 48.064L160.512 46.336C160.128 42.4107 159.338 39.488 158.144 37.568C156.949 35.648 155.114 34.688 152.64 34.688C151.146 34.688 149.909 35.072 148.928 35.84C147.946 36.608 147.264 37.44 146.88 38.336C146.538 39.232 146.112 40.064 145.6 40.832C145.088 41.6 144.49 41.984 143.808 41.984C143.04 41.984 142.421 41.7707 141.952 41.344C141.525 40.9173 141.312 40.3413 141.312 39.616C141.312 37.824 142.357 36.224 144.448 34.816C146.581 33.3653 149.312 32.64 152.64 32.64C156.522 32.64 159.616 33.8347 161.92 36.224C164.266 38.5707 165.653 41.8773 166.08 46.144L167.36 58.88ZM154.368 62.592C156.458 62.592 158.165 61.9307 159.488 60.608C160.81 59.2427 161.429 57.5573 161.344 55.552L161.088 52.672C160.746 51.136 159.936 49.8987 158.656 48.96C157.418 48.0213 155.882 47.552 154.048 47.552C151.872 47.552 150.101 48.1707 148.736 49.408C147.37 50.6453 146.688 52.2453 146.688 54.208C146.688 56.5973 147.392 58.6027 148.8 60.224C150.25 61.8027 152.106 62.592 154.368 62.592ZM200.759 33.28C202.252 33.28 202.977 33.6213 202.935 34.304C202.892 34.5173 202.764 34.7093 202.551 34.88C202.209 35.2213 201.761 35.4773 201.207 35.648C200.652 35.8187 199.969 35.9467 199.159 36.032C198.348 36.1173 197.729 36.224 197.303 36.352C198.668 37.376 199.756 38.6987 200.567 40.32C201.377 41.8987 201.783 43.52 201.783 45.184C201.783 47.8293 201.1 50.1547 199.735 52.16C198.369 54.1653 196.492 55.68 194.103 56.704C196.833 57.3013 198.903 58.3253 200.311 59.776C201.719 61.184 202.423 62.848 202.423 64.768C202.423 67.712 201.036 70.0373 198.263 71.744C195.532 73.4933 191.969 74.368 187.575 74.368C183.052 74.368 179.489 73.3227 176.887 71.232C174.284 69.184 172.983 66.9867 172.983 64.64C172.983 63.9573 173.175 63.3813 173.559 62.912C173.985 62.4427 174.583 62.208 175.351 62.208C175.948 62.208 176.46 62.464 176.887 62.976C177.356 63.4453 177.719 64.0427 177.975 64.768C178.273 65.536 178.657 66.3467 179.127 67.2C179.639 68.096 180.193 68.9067 180.791 69.632C181.431 70.4 182.369 71.04 183.607 71.552C184.844 72.064 186.295 72.32 187.958 72.32C190.561 72.32 192.673 71.6587 194.295 70.336C195.916 69.0133 196.727 67.2853 196.727 65.152C196.727 63.104 196.087 61.44 194.807 60.16C193.527 58.8373 191.799 58.0693 189.623 57.856C188.513 57.9413 187.703 57.984 187.191 57.984C183.351 57.984 180.108 56.7893 177.463 54.4C174.817 51.968 173.495 49.024 173.495 45.568C173.495 41.7707 174.796 38.6773 177.399 36.288C180.001 33.856 183.415 32.64 187.639 32.64C188.791 32.64 190.519 32.7467 192.823 32.96C195.127 33.1733 197.772 33.28 200.759 33.28ZM188.215 55.872C190.647 55.872 192.588 55.0613 194.039 53.44C195.489 51.776 196.215 49.6853 196.215 47.168C196.215 43.7547 195.297 40.832 193.463 38.4C191.671 35.9253 189.388 34.688 186.615 34.688C184.353 34.688 182.519 35.4987 181.111 37.12C179.745 38.7413 179.062 40.7893 179.062 43.264C179.062 46.72 179.937 49.6853 181.687 52.16C183.479 54.6347 185.655 55.872 188.215 55.872ZM233.223 54.976C233.521 54.5067 233.927 54.336 234.439 54.464C234.951 54.5493 235.164 54.8907 235.079 55.488C234.609 57.7493 233.244 59.84 230.983 61.76C228.721 63.68 225.756 64.64 222.087 64.64C217.863 64.64 214.321 63.1467 211.463 60.16C208.647 57.1733 207.239 53.248 207.239 48.384C207.239 43.904 208.689 40.1707 211.591 37.184C214.492 34.1547 218.076 32.64 222.343 32.64C225.969 32.64 228.849 33.6213 230.983 35.584C233.159 37.504 234.247 39.68 234.247 42.112C234.247 43.9467 233.244 45.2053 231.239 45.888L213.51 51.712C214.236 54.4853 215.516 56.6613 217.351 58.24C219.228 59.776 221.468 60.544 224.071 60.544C228.465 60.544 231.516 58.688 233.223 54.976ZM221.383 34.688C218.823 34.688 216.753 35.7973 215.175 38.016C213.596 40.2347 212.807 43.008 212.807 46.336C212.807 47.616 212.892 48.704 213.062 49.6L227.335 44.48C228.359 44.0533 228.871 43.3067 228.871 42.24C228.871 40.6187 228.124 38.9547 226.631 37.248C225.18 35.5413 223.431 34.688 221.383 34.688ZM290.51 59.456C290.553 60.3093 290.958 61.056 291.726 61.696C292.494 62.2933 292.878 62.7413 292.878 63.04V63.296C292.878 63.808 292.451 64.064 291.598 64.064H283.918C283.065 64.064 282.638 63.808 282.638 63.296V63.04C282.638 62.7413 283.022 62.2933 283.79 61.696C284.558 61.0987 284.921 60.3733 284.878 59.52L284.238 47.04C284.025 42.8587 283.235 39.8293 281.87 37.952C280.547 36.0747 278.67 35.136 276.238 35.136C274.19 35.136 272.419 35.9467 270.926 37.568C269.475 39.1893 268.707 41.1947 268.622 43.584C268.793 44.4373 268.878 45.4827 268.878 46.72V59.52C268.878 60.3733 269.241 61.0987 269.966 61.696C270.734 62.2933 271.118 62.7413 271.118 63.04V63.296C271.118 63.808 270.713 64.064 269.902 64.064H262.35C261.454 64.064 261.006 63.808 261.006 63.296V63.04C261.006 62.7413 261.369 62.2933 262.094 61.696C262.862 61.0987 263.246 60.3733 263.246 59.52V46.4C263.246 42.944 262.478 40.2133 260.942 38.208C259.449 36.16 257.571 35.136 255.31 35.136C253.091 35.136 251.235 35.968 249.742 37.632C248.249 39.296 247.459 41.344 247.374 43.776L247.438 59.52C247.438 60.3733 247.843 61.0987 248.654 61.696C249.507 62.2933 249.934 62.7413 249.934 63.04V63.296C249.934 63.808 249.507 64.064 248.654 64.064H240.654C239.801 64.064 239.374 63.808 239.374 63.296V63.04C239.374 62.7413 239.779 62.2933 240.59 61.696C241.401 61.0987 241.806 60.3733 241.806 59.52V40.128C241.806 39.4027 241.593 38.8053 241.166 38.336C240.739 37.8667 240.313 37.504 239.886 37.248C239.459 36.9493 239.246 36.6507 239.246 36.352V36.16C239.246 35.776 239.566 35.456 240.206 35.2L245.198 32.896C245.795 32.5973 246.243 32.5547 246.542 32.768C246.883 32.9813 247.054 33.344 247.054 33.856V38.4C247.993 36.6507 249.294 35.264 250.958 34.24C252.665 33.1733 254.521 32.64 256.526 32.64C258.915 32.64 261.07 33.2587 262.99 34.496C264.953 35.6907 266.446 37.4187 267.47 39.68C268.281 37.504 269.603 35.7973 271.438 34.56C273.273 33.28 275.363 32.64 277.71 32.64C281.166 32.64 283.961 33.8133 286.094 36.16C288.27 38.464 289.507 42.1333 289.806 47.168L290.51 59.456Z" fill="#342C29"/>
<path d="M312.436 97.1998C307.612 97.1998 303.707 93.295 303.707 88.4707V74.4364C303.707 69.6121 307.612 65.7074 312.436 65.7074C317.261 65.7074 321.165 69.6121 321.165 74.4364V88.4707C321.165 93.295 317.261 97.1998 312.436 97.1998Z" fill="#F6E049"/>
<path d="M312.436 97.9071C307.23 97.9071 303 93.677 303 88.4707V74.4364C303 69.2301 307.23 65 312.436 65C317.643 65 321.873 69.2301 321.873 74.4364V88.4707C321.873 93.677 317.643 97.9071 312.436 97.9071ZM312.436 66.4289C308.022 66.4289 304.415 70.0224 304.415 74.4505V88.4849C304.415 92.8989 308.008 96.5065 312.436 96.5065C316.85 96.5065 320.458 92.9131 320.458 88.4849V74.4505C320.458 70.0224 316.865 66.4289 312.436 66.4289Z" fill="#383A48"/>
<path d="M312.436 112.889C312.04 112.889 311.729 112.578 311.729 112.182V84.0426C311.729 83.6464 312.04 83.3352 312.436 83.3352C312.833 83.3352 313.144 83.6464 313.144 84.0426V112.182C313.144 112.564 312.833 112.889 312.436 112.889Z" fill="#383A48"/>
<path d="M48.9152 62.4715C51.4052 60.4342 52.9897 57.3218 52.9897 53.8556C52.9897 47.7015 47.9957 42.7074 41.8415 42.7074C35.6873 42.7074 30.6932 47.7015 30.6932 53.8556C30.6932 57.3218 32.2778 60.4342 34.7677 62.4715C32.2778 64.5087 30.6932 67.6212 30.6932 71.0873C30.6932 77.2415 35.6873 82.2356 41.8415 82.2356C47.9957 82.2356 52.9897 77.2415 52.9897 71.0873C52.9897 67.6212 51.4052 64.5229 48.9152 62.4715Z" fill="#CEFBF0"/>
<path d="M41.8556 82.9429C35.3195 82.9429 30 77.6235 30 71.0873C30 67.8051 31.344 64.7068 33.7208 62.4715C31.344 60.2362 30 57.1378 30 53.8556C30 47.3195 35.3195 42 41.8556 42C48.3918 42 53.7112 47.3195 53.7112 53.8556C53.7112 57.1378 52.3672 60.2362 49.9905 62.4715C52.3672 64.7068 53.7112 67.8051 53.7112 71.0873C53.6971 77.6235 48.3776 82.9429 41.8556 82.9429ZM41.8556 43.4289C36.0976 43.4289 31.4148 48.1117 31.4148 53.8698C31.4148 57.0105 32.8012 59.9532 35.2346 61.9339C35.4044 62.0612 35.4892 62.2734 35.4892 62.4856C35.4892 62.6978 35.3902 62.8959 35.2346 63.0374C32.8012 65.0322 31.4148 67.9749 31.4148 71.1015C31.4148 76.8595 36.0976 81.5423 41.8556 81.5423C47.6137 81.5423 52.2824 76.8453 52.2824 71.0873C52.2824 67.9466 50.8959 65.0039 48.4625 63.0232C48.2927 62.8959 48.2079 62.6837 48.2079 62.4715C48.2079 62.2593 48.3069 62.0612 48.4625 61.9197C50.8959 59.9249 52.2824 56.9822 52.2824 53.8556C52.2824 48.0976 47.5995 43.4289 41.8556 43.4289Z" fill="#383A48"/>
<path d="M41.8556 112.115C41.4594 112.115 41.1482 111.804 41.1482 111.408V52.1013C41.1482 51.7052 41.4594 51.394 41.8556 51.394C42.2517 51.394 42.5629 51.7052 42.5629 52.1013V111.408C42.5629 111.79 42.2376 112.115 41.8556 112.115Z" fill="#383A48"/>
<path d="M41.8556 74.9354C41.6717 74.9354 41.4877 74.8647 41.3463 74.7091L37.385 70.5497C37.1162 70.2667 37.1303 69.814 37.4133 69.5452C37.6962 69.2764 38.1489 69.2906 38.4177 69.5735L42.379 73.7329C42.6478 74.0158 42.6337 74.4686 42.3507 74.7374C42.1951 74.8788 42.0253 74.9354 41.8556 74.9354Z" fill="#383A48"/>
<path d="M41.8556 74.9354C41.6858 74.9354 41.5019 74.8647 41.3746 74.7374C41.0916 74.4686 41.0775 74.0158 41.3463 73.7329L45.3076 69.5735C45.5764 69.2906 46.0291 69.2764 46.312 69.5452C46.595 69.814 46.6091 70.2667 46.3403 70.5497L42.379 74.7091C42.2234 74.8647 42.0395 74.9354 41.8556 74.9354Z" fill="#383A48"/>
<path d="M41.8556 60.2079C41.6717 60.2079 41.4877 60.1371 41.3463 59.9815L37.385 55.8221C37.1162 55.5392 37.1303 55.0865 37.4133 54.8177C37.6962 54.5489 38.1489 54.563 38.4177 54.8459L42.379 59.0053C42.6478 59.2883 42.6337 59.741 42.3507 60.0098C42.1951 60.1371 42.0253 60.2079 41.8556 60.2079Z" fill="#383A48"/>
<path d="M41.8556 60.2079C41.6858 60.2079 41.5019 60.1371 41.3746 60.0098C41.0916 59.741 41.0775 59.2883 41.3463 59.0053L45.3076 54.8459C45.5764 54.563 46.0291 54.5489 46.312 54.8177C46.595 55.0865 46.6091 55.5392 46.3403 55.8221L42.379 59.9815C42.2234 60.1371 42.0395 60.2079 41.8556 60.2079Z" fill="#383A48"/>
<path d="M118.621 111.067C122.91 111.067 126.388 107.59 126.388 103.3C126.388 99.0108 122.91 95.5334 118.621 95.5334C114.331 95.5334 110.854 99.0108 110.854 103.3C110.854 107.59 114.331 111.067 118.621 111.067Z" fill="#383A48"/>
<path d="M118.621 111.775C113.952 111.775 110.146 107.969 110.146 103.3C110.146 98.6317 113.952 94.826 118.621 94.826C123.289 94.826 127.095 98.6317 127.095 103.3C127.095 107.969 123.289 111.775 118.621 111.775ZM118.621 96.2408C114.73 96.2408 111.561 99.4098 111.561 103.3C111.561 107.191 114.73 110.36 118.621 110.36C122.511 110.36 125.68 107.191 125.68 103.3C125.68 99.4098 122.511 96.2408 118.621 96.2408Z" fill="#383A48"/>
<path d="M69.1892 111.082C73.4788 111.082 76.9562 107.604 76.9562 103.315C76.9562 99.0249 73.4788 95.5475 69.1892 95.5475C64.8996 95.5475 61.4222 99.0249 61.4222 103.315C61.4222 107.604 64.8996 111.082 69.1892 111.082Z" fill="#383A48"/>
<path d="M69.1892 111.789C64.5205 111.789 60.7148 107.983 60.7148 103.315C60.7148 98.6458 64.5205 94.8401 69.1892 94.8401C73.8579 94.8401 77.6636 98.6458 77.6636 103.315C77.6636 107.983 73.872 111.789 69.1892 111.789ZM69.1892 96.2549C65.2986 96.2549 62.1296 99.4239 62.1296 103.315C62.1296 107.205 65.2986 110.374 69.1892 110.374C73.0798 110.374 76.2488 107.205 76.2488 103.315C76.2488 99.4239 73.0939 96.2549 69.1892 96.2549Z" fill="#383A48"/>
<path d="M54.8295 91.6287C55.0983 90.9496 55.4661 90.2988 55.933 89.7329C56.0886 89.5348 56.2584 89.3368 56.4282 89.167C56.9799 88.6152 57.6024 88.1625 58.2815 87.823C58.9747 87.4834 59.7104 87.2429 60.4743 87.1298L72.3017 85.3896L90.3115 60.9427C91.3159 59.5704 92.1507 58.7357 93.5796 58.7215C93.5796 58.7215 93.5937 58.7215 93.6078 58.7215H119.54C121.04 58.7215 122.483 59.3157 123.516 60.4051L148.741 85.6018V90.4686C148.741 90.9496 148.939 91.4023 149.278 91.7418C149.448 91.9116 149.561 92.0955 149.66 92.3077C149.745 92.5341 149.788 92.7605 149.788 93.001V100.202C149.788 101.023 149.448 101.815 148.882 102.409C148.599 102.706 148.246 102.933 147.864 103.088C147.482 103.244 147.085 103.329 146.675 103.329H56.7394C56.2584 103.329 55.7915 103.201 55.3954 102.933C55.0559 102.706 54.787 102.395 54.589 102.055C54.4051 101.716 54.306 101.32 54.306 100.909V94.3167C54.306 93.3547 54.4899 92.4634 54.8295 91.6287Z" fill="#7FD6C2"/>
<path d="M146.689 104.008H56.7394C56.1169 104.008 55.5085 103.824 54.9992 103.484C54.5889 103.215 54.2211 102.834 53.9665 102.352C53.7118 101.9 53.5845 101.39 53.5845 100.867V94.2743C53.5845 93.2698 53.7825 92.2936 54.1645 91.3599C54.4616 90.5959 54.8719 89.8885 55.3671 89.2943C55.5368 89.068 55.7207 88.8699 55.9188 88.6718C56.513 88.0776 57.1921 87.5825 57.9561 87.2005C58.72 86.8185 59.5264 86.5638 60.3611 86.4365L71.9055 84.7388L89.7314 60.5183C90.6934 59.2025 91.712 58.0141 93.5654 58H93.5937H119.526C121.21 58 122.851 58.6932 124.011 59.8958L149.222 85.0925C149.349 85.2198 149.434 85.4038 149.434 85.5877V90.4544C149.434 90.7374 149.547 91.0203 149.773 91.2467C149.986 91.4589 150.17 91.7277 150.297 92.0248C150.424 92.336 150.481 92.6614 150.481 92.9868V100.188C150.481 101.192 150.085 102.154 149.363 102.89C149.024 103.244 148.599 103.527 148.118 103.725C147.68 103.909 147.199 104.008 146.689 104.008ZM93.5937 59.4148C92.4902 59.4289 91.8535 60.0514 90.8915 61.353L72.8817 85.7999C72.7685 85.9555 72.5987 86.0545 72.4148 86.0828L60.5875 87.823C59.9084 87.922 59.2435 88.1342 58.6068 88.4455C57.9844 88.7567 57.4185 89.167 56.9374 89.6622C56.7818 89.8178 56.6262 89.9876 56.4989 90.1573L56.4847 90.1715C56.0744 90.6666 55.749 91.2325 55.4944 91.8692C55.4944 91.8692 55.4944 91.8692 55.4944 91.8833C55.1831 92.6473 55.0275 93.4537 55.0275 94.2743V100.867C55.0275 101.15 55.0983 101.433 55.2256 101.673C55.3671 101.942 55.5651 102.154 55.7915 102.296C56.0744 102.48 56.3998 102.579 56.7535 102.579H146.689C147.015 102.579 147.326 102.522 147.609 102.395C147.906 102.268 148.175 102.098 148.387 101.886C148.854 101.419 149.094 100.81 149.094 100.174V92.9727C149.094 92.8312 149.066 92.6897 149.01 92.5483C148.953 92.4209 148.882 92.3077 148.783 92.2229C148.302 91.7277 148.047 91.0911 148.047 90.4403V85.8706L123.035 60.872C122.115 59.9241 120.884 59.4006 119.554 59.4006H93.5937V59.4148Z" fill="#383A48"/>
<path d="M97.3145 85.7291H75.0746L91.5847 63.3761H113.089L97.3145 85.7291Z" fill="#AAC6FC"/>
<path d="M97.3145 86.4365H75.0746C74.8058 86.4365 74.5653 86.2809 74.438 86.0545C74.3106 85.814 74.3389 85.5311 74.4946 85.3189L91.0189 62.9658C91.1462 62.7819 91.3584 62.6828 91.5848 62.6828H113.089C113.358 62.6828 113.598 62.8243 113.711 63.0648C113.825 63.3053 113.811 63.5883 113.655 63.8005L97.8804 86.1536C97.7531 86.3233 97.5409 86.4365 97.3145 86.4365ZM76.4752 85.0218H96.9467L111.717 64.0834H91.9385L76.4752 85.0218Z" fill="#383A48"/>
<path d="M144.921 92.817H125.595V103.315H144.921V92.817Z" fill="#383A48"/>
<path d="M144.921 104.022H125.595C125.199 104.022 124.888 103.711 124.888 103.315V92.8171C124.888 92.4209 125.199 92.1097 125.595 92.1097H144.921C145.317 92.1097 145.628 92.4209 145.628 92.8171V103.315C145.628 103.697 145.317 104.022 144.921 104.022ZM126.303 102.607H144.214V93.5244H126.303V102.607Z" fill="#383A48"/>
<path d="M151.981 92.9727V100.188C151.981 101.008 151.641 101.801 151.075 102.395C150.481 102.989 149.703 103.3 148.868 103.3H144.935V103.215C144.935 98.5609 141.158 94.7694 136.489 94.7694C131.835 94.7694 128.043 98.5468 128.043 103.215V103.3H95.5603V102.918C95.5603 98.3912 91.8819 94.7411 87.3547 94.7694C82.8558 94.7977 79.2623 98.5326 79.2623 103.017V103.3H75.0888C74.6078 103.3 74.1409 103.159 73.7448 102.904C73.094 102.452 72.6837 101.688 72.6837 100.867V94.2601C72.6837 92.3502 73.4335 90.511 74.7917 89.1528C75.8811 88.0635 77.31 87.342 78.8379 87.1156L90.6652 85.3754L107.26 62.2301C107.6 61.7491 107.996 61.3105 108.42 60.9285C109.962 59.5138 112 58.7074 114.136 58.7074H138.088C140.139 58.7781 141.851 60.2919 142.29 62.2867L144.539 69.3887L151.981 92.9727Z" fill="#F3F6E6"/>
<path d="M148.868 104.022H144.935C144.539 104.022 144.228 103.711 144.228 103.315V103.23C144.228 98.9571 140.747 95.4909 136.489 95.4909C132.216 95.4909 128.75 98.9712 128.75 103.23V103.315C128.75 103.711 128.439 104.022 128.043 104.022H95.5602C95.1641 104.022 94.8529 103.711 94.8529 103.315V102.933C94.8529 100.938 94.0747 99.0561 92.66 97.6555C91.2452 96.2549 89.3636 95.4768 87.3547 95.4909C83.2802 95.5192 79.9555 98.9005 79.9555 103.032V103.315C79.9555 103.711 79.6443 104.022 79.2481 104.022H75.0746C74.4663 104.022 73.8721 103.838 73.3486 103.513C73.3345 103.513 73.3345 103.498 73.3203 103.498C72.4715 102.904 71.9622 101.928 71.9622 100.881V94.2743C71.9622 92.1521 72.7827 90.1715 74.2824 88.6718C75.4849 87.4693 77.0553 86.677 78.7247 86.4365L90.2549 84.7388L106.68 61.834C107.048 61.3247 107.472 60.8437 107.939 60.4192C109.637 58.863 111.83 58.0142 114.122 58.0142H138.074C138.088 58.0142 138.088 58.0142 138.102 58.0142C140.45 58.0849 142.445 59.7826 142.969 62.1169L152.66 92.7746C152.688 92.8454 152.688 92.9161 152.688 92.9868V100.202C152.688 101.207 152.292 102.169 151.57 102.904C150.849 103.626 149.887 104.022 148.868 104.022ZM145.614 102.607H148.868C149.505 102.607 150.113 102.352 150.566 101.9C151.019 101.433 151.273 100.839 151.273 100.202V93.0859L141.61 62.4989C141.61 62.4848 141.596 62.4565 141.596 62.4423C141.228 60.7163 139.771 59.4855 138.074 59.4148H114.136C112.198 59.4148 110.33 60.1363 108.901 61.452C108.505 61.8057 108.152 62.216 107.84 62.6404L91.2311 85.7857C91.1179 85.9414 90.9481 86.0404 90.7642 86.0687L78.9369 87.8088C77.5646 88.0069 76.2772 88.6577 75.2868 89.648C74.056 90.8789 73.3769 92.5058 73.3769 94.2601V100.867C73.3769 101.433 73.6599 101.985 74.1267 102.31C74.4238 102.494 74.7492 102.593 75.0746 102.593H78.5549C78.7813 97.8819 82.6294 94.0903 87.3405 94.062C89.7173 94.0479 91.9526 94.9533 93.6503 96.6369C95.2631 98.2356 96.1827 100.344 96.2534 102.593H127.35C127.675 97.8394 131.651 94.062 136.489 94.062C141.327 94.062 145.289 97.8536 145.614 102.607Z" fill="#383A48"/>
<path d="M143.591 85.7292H97.3145L113.089 63.3761H136.814L143.591 85.7292Z" fill="#AAC6FC"/>
<path d="M143.591 86.4365H97.3145C97.0457 86.4365 96.8052 86.2951 96.692 86.0545C96.5647 85.814 96.593 85.5311 96.7486 85.3189L112.523 62.9658C112.65 62.7819 112.877 62.6687 113.103 62.6687H136.829C137.14 62.6687 137.409 62.8668 137.508 63.1638L144.284 85.5169C144.355 85.7291 144.313 85.9697 144.171 86.1394C144.03 86.3375 143.817 86.4365 143.591 86.4365ZM98.6727 85.0218H142.629L136.277 64.0834H113.443L98.6727 85.0218Z" fill="#383A48"/>
<path d="M113.98 104.022C113.584 104.022 113.273 103.711 113.273 103.315V85.7292C113.273 85.333 113.584 85.0218 113.98 85.0218C114.376 85.0218 114.688 85.333 114.688 85.7292V103.315C114.688 103.697 114.362 104.022 113.98 104.022Z" fill="#383A48"/>
<path d="M59.5407 95.7739H56.7536C56.2584 95.7739 55.8481 95.3636 55.8481 94.8685C55.8481 94.3733 56.2584 93.963 56.7536 93.963H59.5407C60.0358 93.963 60.4461 94.3733 60.4461 94.8685C60.4461 95.3778 60.0358 95.7739 59.5407 95.7739Z" fill="#383A48"/>
<path d="M59.5406 96.4813H56.7536C55.8623 96.4813 55.1407 95.7597 55.1407 94.8685C55.1407 93.9772 55.8623 93.2556 56.7536 93.2556H59.5406C60.4319 93.2556 61.1534 93.9772 61.1534 94.8685C61.1534 95.7597 60.4319 96.4813 59.5406 96.4813ZM56.7536 94.6704C56.6404 94.6704 56.5555 94.7553 56.5555 94.8685C56.5555 94.9816 56.6404 95.0665 56.7536 95.0665H59.5406C59.6538 95.0665 59.7387 94.9816 59.7387 94.8685C59.7387 94.7553 59.6538 94.6704 59.5406 94.6704H56.7536Z" fill="#383A48"/>
<path d="M69.9249 95.7739H67.1379C66.6427 95.7739 66.2324 95.3636 66.2324 94.8685C66.2324 94.3733 66.6427 93.963 67.1379 93.963H69.9249C70.4201 93.963 70.8304 94.3733 70.8304 94.8685C70.8304 95.3778 70.4201 95.7739 69.9249 95.7739Z" fill="#383A48"/>
<path d="M69.9249 96.4813H67.1378C66.2466 96.4813 65.525 95.7597 65.525 94.8685C65.525 93.9772 66.2466 93.2556 67.1378 93.2556H69.9249C70.8162 93.2556 71.5377 93.9772 71.5377 94.8685C71.5377 95.7597 70.8162 96.4813 69.9249 96.4813ZM67.1237 94.6704C67.0105 94.6704 66.9256 94.7553 66.9256 94.8685C66.9256 94.9816 67.0105 95.0665 67.1237 95.0665H69.9108C70.0239 95.0665 70.1088 94.9816 70.1088 94.8685C70.1088 94.7553 70.0239 94.6704 69.9108 94.6704H67.1237Z" fill="#383A48"/>
<path d="M52.7074 102.805C52.7074 101.645 53.6836 100.697 54.8861 100.697H77.0411C78.2437 100.697 79.2199 101.645 79.2199 102.805C79.2199 103.965 78.2437 104.913 77.0411 104.913H54.8861C53.6836 104.913 52.7074 103.979 52.7074 102.805Z" fill="#F3F6E6"/>
<path d="M77.0553 105.621H54.8861C53.2874 105.621 52 104.361 52 102.805C52 101.249 53.3016 99.9899 54.8861 99.9899H77.0411C78.6398 99.9899 79.9272 101.249 79.9272 102.805C79.9272 104.361 78.6398 105.621 77.0553 105.621ZM54.8861 101.419C54.0797 101.419 53.4148 102.041 53.4148 102.819C53.4148 103.597 54.0797 104.22 54.8861 104.22H77.0411C77.8475 104.22 78.5125 103.597 78.5125 102.819C78.5125 102.041 77.8475 101.419 77.0411 101.419H54.8861Z" fill="#383A48"/>
<path d="M136.758 111.067C141.047 111.067 144.525 107.59 144.525 103.3C144.525 99.0108 141.047 95.5334 136.758 95.5334C132.468 95.5334 128.991 99.0108 128.991 103.3C128.991 107.59 132.468 111.067 136.758 111.067Z" fill="#383A48"/>
<path d="M136.758 111.775C132.089 111.775 128.283 107.969 128.283 103.3C128.283 98.6317 132.089 94.826 136.758 94.826C141.426 94.826 145.232 98.6317 145.232 103.3C145.232 107.969 141.426 111.775 136.758 111.775ZM136.758 96.2408C132.867 96.2408 129.698 99.4098 129.698 103.3C129.698 107.191 132.867 110.36 136.758 110.36C140.648 110.36 143.817 107.191 143.817 103.3C143.817 99.4098 140.648 96.2408 136.758 96.2408Z" fill="#383A48"/>
<path d="M136.758 109.115C139.969 109.115 142.572 106.512 142.572 103.3C142.572 100.089 139.969 97.4858 136.758 97.4858C133.547 97.4858 130.943 100.089 130.943 103.3C130.943 106.512 133.547 109.115 136.758 109.115Z" fill="#F3F6E6"/>
<path d="M136.758 109.822C133.164 109.822 130.236 106.894 130.236 103.3C130.236 99.7069 133.164 96.7784 136.758 96.7784C140.351 96.7784 143.28 99.7069 143.28 103.3C143.28 106.894 140.351 109.822 136.758 109.822ZM136.758 98.1931C133.942 98.1931 131.651 100.485 131.651 103.3C131.651 106.116 133.942 108.408 136.758 108.408C139.573 108.408 141.865 106.116 141.865 103.3C141.851 100.485 139.573 98.1931 136.758 98.1931Z" fill="#383A48"/>
<path d="M87.3263 111.082C91.6159 111.082 95.0933 107.604 95.0933 103.315C95.0933 99.0249 91.6159 95.5475 87.3263 95.5475C83.0367 95.5475 79.5593 99.0249 79.5593 103.315C79.5593 107.604 83.0367 111.082 87.3263 111.082Z" fill="#383A48"/>
<path d="M87.3264 111.789C82.6577 111.789 78.8521 107.983 78.8521 103.315C78.8521 98.6458 82.6577 94.8401 87.3264 94.8401C91.9951 94.8401 95.8008 98.6458 95.8008 103.315C95.8008 107.983 91.9951 111.789 87.3264 111.789ZM87.3264 96.2549C83.4358 96.2549 80.2668 99.4239 80.2668 103.315C80.2668 107.205 83.4358 110.374 87.3264 110.374C91.217 110.374 94.386 107.205 94.386 103.315C94.386 99.4239 91.217 96.2549 87.3264 96.2549Z" fill="#383A48"/>
<path d="M87.3263 109.129C90.5377 109.129 93.141 106.526 93.141 103.315C93.141 100.103 90.5377 97.4999 87.3263 97.4999C84.115 97.4999 81.5117 100.103 81.5117 103.315C81.5117 106.526 84.115 109.129 87.3263 109.129Z" fill="#F3F6E6"/>
<path d="M87.3263 109.837C83.7329 109.837 80.8043 106.908 80.8043 103.315C80.8043 99.7211 83.7329 96.7925 87.3263 96.7925C90.9198 96.7925 93.8483 99.7211 93.8483 103.315C93.8483 106.908 90.9198 109.837 87.3263 109.837ZM87.3263 98.2073C84.511 98.2073 82.2191 100.499 82.2191 103.315C82.2191 106.13 84.511 108.422 87.3263 108.422C90.1417 108.422 92.4336 106.13 92.4336 103.315C92.4336 100.499 90.1417 98.2073 87.3263 98.2073Z" fill="#383A48"/>
<path d="M288.5 112.706C288.106 112.706 287.797 112.397 287.797 112.003V56.4124C287.797 56.0188 288.106 55.7096 288.5 55.7096C288.893 55.7096 289.203 56.0188 289.203 56.4124V112.003C289.203 112.382 288.879 112.706 288.5 112.706Z" fill="#383A48"/>
<path d="M303.301 62.1893H273.699L282.133 47.501L288.5 36.397L294.867 47.501L303.301 62.1893Z" fill="#7FD6C2"/>
<path d="M303.301 62.8921H273.699C273.446 62.8921 273.221 62.7515 273.095 62.5407C272.968 62.3299 272.968 62.0628 273.095 61.8379L287.896 36.0456C288.022 35.8207 288.247 35.6942 288.5 35.6942C288.753 35.6942 288.978 35.8347 289.104 36.0456L303.905 61.8379C304.032 62.0487 304.032 62.3299 303.905 62.5407C303.779 62.7656 303.554 62.8921 303.301 62.8921ZM274.908 61.4865H302.078L288.486 37.8025L274.908 61.4865Z" fill="#383A48"/>
<path d="M300.152 60.4183C300.54 60.4183 300.855 60.1036 300.855 59.7155C300.855 59.3273 300.54 59.0127 300.152 59.0127C299.764 59.0127 299.449 59.3273 299.449 59.7155C299.449 60.1036 299.764 60.4183 300.152 60.4183Z" fill="#383A48"/>
<path d="M296.694 53.4888C297.083 53.4888 297.397 53.1741 297.397 52.786C297.397 52.3978 297.083 52.0832 296.694 52.0832C296.306 52.0832 295.992 52.3978 295.992 52.786C295.992 53.1741 296.306 53.4888 296.694 53.4888Z" fill="#383A48"/>
<path d="M296.694 56.9606C297.083 56.9606 297.397 56.6459 297.397 56.2578C297.397 55.8696 297.083 55.555 296.694 55.555C296.306 55.555 295.992 55.8696 295.992 56.2578C295.992 56.6459 296.306 56.9606 296.694 56.9606Z" fill="#383A48"/>
<path d="M296.694 60.4183C297.083 60.4183 297.397 60.1036 297.397 59.7155C297.397 59.3273 297.083 59.0127 296.694 59.0127C296.306 59.0127 295.992 59.3273 295.992 59.7155C295.992 60.1036 296.306 60.4183 296.694 60.4183Z" fill="#383A48"/>
<path d="M293.223 46.5593C293.611 46.5593 293.926 46.2446 293.926 45.8565C293.926 45.4684 293.611 45.1537 293.223 45.1537C292.835 45.1537 292.52 45.4684 292.52 45.8565C292.52 46.2446 292.835 46.5593 293.223 46.5593Z" fill="#383A48"/>
<path d="M293.223 50.017C293.611 50.017 293.926 49.7023 293.926 49.3142C293.926 48.9261 293.611 48.6114 293.223 48.6114C292.835 48.6114 292.52 48.9261 292.52 49.3142C292.52 49.7023 292.835 50.017 293.223 50.017Z" fill="#383A48"/>
<path d="M293.223 53.4888C293.611 53.4888 293.926 53.1741 293.926 52.786C293.926 52.3978 293.611 52.0832 293.223 52.0832C292.835 52.0832 292.52 52.3978 292.52 52.786C292.52 53.1741 292.835 53.4888 293.223 53.4888Z" fill="#383A48"/>
<path d="M293.223 56.9606C293.611 56.9606 293.926 56.6459 293.926 56.2578C293.926 55.8696 293.611 55.555 293.223 55.555C292.835 55.555 292.52 55.8696 292.52 56.2578C292.52 56.6459 292.835 56.9606 293.223 56.9606Z" fill="#383A48"/>
<path d="M293.223 60.4183C293.611 60.4183 293.926 60.1036 293.926 59.7155C293.926 59.3273 293.611 59.0127 293.223 59.0127C292.835 59.0127 292.52 59.3273 292.52 59.7155C292.52 60.1036 292.835 60.4183 293.223 60.4183Z" fill="#383A48"/>
<path d="M289.751 43.0875C290.139 43.0875 290.454 42.7729 290.454 42.3847C290.454 41.9966 290.139 41.6819 289.751 41.6819C289.363 41.6819 289.048 41.9966 289.048 42.3847C289.048 42.7729 289.363 43.0875 289.751 43.0875Z" fill="#383A48"/>
<path d="M289.751 46.5593C290.139 46.5593 290.454 46.2446 290.454 45.8565C290.454 45.4684 290.139 45.1537 289.751 45.1537C289.363 45.1537 289.048 45.4684 289.048 45.8565C289.048 46.2446 289.363 46.5593 289.751 46.5593Z" fill="#383A48"/>
<path d="M289.751 50.017C290.139 50.017 290.454 49.7023 290.454 49.3142C290.454 48.9261 290.139 48.6114 289.751 48.6114C289.363 48.6114 289.048 48.9261 289.048 49.3142C289.048 49.7023 289.363 50.017 289.751 50.017Z" fill="#383A48"/>
<path d="M289.751 53.4888C290.139 53.4888 290.454 53.1741 290.454 52.786C290.454 52.3978 290.139 52.0832 289.751 52.0832C289.363 52.0832 289.048 52.3978 289.048 52.786C289.048 53.1741 289.363 53.4888 289.751 53.4888Z" fill="#383A48"/>
<path d="M289.751 56.9606C290.139 56.9606 290.454 56.6459 290.454 56.2578C290.454 55.8696 290.139 55.555 289.751 55.555C289.363 55.555 289.048 55.8696 289.048 56.2578C289.048 56.6459 289.363 56.9606 289.751 56.9606Z" fill="#383A48"/>
<path d="M289.751 60.4183C290.139 60.4183 290.454 60.1036 290.454 59.7155C290.454 59.3273 290.139 59.0127 289.751 59.0127C289.363 59.0127 289.048 59.3273 289.048 59.7155C289.048 60.1036 289.363 60.4183 289.751 60.4183Z" fill="#383A48"/>
<path d="M286.293 43.0875C286.681 43.0875 286.996 42.7729 286.996 42.3847C286.996 41.9966 286.681 41.6819 286.293 41.6819C285.905 41.6819 285.59 41.9966 285.59 42.3847C285.59 42.7729 285.905 43.0875 286.293 43.0875Z" fill="#383A48"/>
<path d="M286.293 46.5593C286.681 46.5593 286.996 46.2446 286.996 45.8565C286.996 45.4684 286.681 45.1537 286.293 45.1537C285.905 45.1537 285.59 45.4684 285.59 45.8565C285.59 46.2446 285.905 46.5593 286.293 46.5593Z" fill="#383A48"/>
<path d="M286.293 50.017C286.681 50.017 286.996 49.7023 286.996 49.3142C286.996 48.9261 286.681 48.6114 286.293 48.6114C285.905 48.6114 285.59 48.9261 285.59 49.3142C285.59 49.7023 285.905 50.017 286.293 50.017Z" fill="#383A48"/>
<path d="M286.293 53.4888C286.681 53.4888 286.996 53.1741 286.996 52.786C286.996 52.3978 286.681 52.0832 286.293 52.0832C285.905 52.0832 285.59 52.3978 285.59 52.786C285.59 53.1741 285.905 53.4888 286.293 53.4888Z" fill="#383A48"/>
<path d="M286.293 56.9606C286.681 56.9606 286.996 56.6459 286.996 56.2578C286.996 55.8696 286.681 55.555 286.293 55.555C285.905 55.555 285.59 55.8696 285.59 56.2578C285.59 56.6459 285.905 56.9606 286.293 56.9606Z" fill="#383A48"/>
<path d="M286.293 60.4183C286.681 60.4183 286.996 60.1036 286.996 59.7155C286.996 59.3273 286.681 59.0127 286.293 59.0127C285.905 59.0127 285.59 59.3273 285.59 59.7155C285.59 60.1036 285.905 60.4183 286.293 60.4183Z" fill="#383A48"/>
<path d="M282.821 50.017C283.21 50.017 283.524 49.7023 283.524 49.3142C283.524 48.9261 283.21 48.6114 282.821 48.6114C282.433 48.6114 282.119 48.9261 282.119 49.3142C282.119 49.7023 282.433 50.017 282.821 50.017Z" fill="#383A48"/>
<path d="M282.821 53.4888C283.21 53.4888 283.524 53.1741 283.524 52.786C283.524 52.3978 283.21 52.0832 282.821 52.0832C282.433 52.0832 282.119 52.3978 282.119 52.786C282.119 53.1741 282.433 53.4888 282.821 53.4888Z" fill="#383A48"/>
<path d="M282.821 56.9606C283.21 56.9606 283.524 56.6459 283.524 56.2578C283.524 55.8696 283.21 55.555 282.821 55.555C282.433 55.555 282.119 55.8696 282.119 56.2578C282.119 56.6459 282.433 56.9606 282.821 56.9606Z" fill="#383A48"/>
<path d="M282.821 60.4183C283.21 60.4183 283.524 60.1036 283.524 59.7155C283.524 59.3273 283.21 59.0127 282.821 59.0127C282.433 59.0127 282.119 59.3273 282.119 59.7155C282.119 60.1036 282.433 60.4183 282.821 60.4183Z" fill="#383A48"/>
<path d="M279.35 53.4888C279.738 53.4888 280.052 53.1741 280.052 52.786C280.052 52.3978 279.738 52.0832 279.35 52.0832C278.961 52.0832 278.647 52.3978 278.647 52.786C278.647 53.1741 278.961 53.4888 279.35 53.4888Z" fill="#383A48"/>
<path d="M279.35 56.9606C279.738 56.9606 280.052 56.6459 280.052 56.2578C280.052 55.8696 279.738 55.555 279.35 55.555C278.961 55.555 278.647 55.8696 278.647 56.2578C278.647 56.6459 278.961 56.9606 279.35 56.9606Z" fill="#383A48"/>
<path d="M279.35 60.4183C279.738 60.4183 280.052 60.1036 280.052 59.7155C280.052 59.3273 279.738 59.0127 279.35 59.0127C278.961 59.0127 278.647 59.3273 278.647 59.7155C278.647 60.1036 278.961 60.4183 279.35 60.4183Z" fill="#383A48"/>
<path d="M275.892 60.4183C276.28 60.4183 276.595 60.1036 276.595 59.7155C276.595 59.3273 276.28 59.0127 275.892 59.0127C275.504 59.0127 275.189 59.3273 275.189 59.7155C275.189 60.1036 275.504 60.4183 275.892 60.4183Z" fill="#383A48"/>
<path d="M295.472 47.1496L289.104 36.0456C288.978 35.8207 288.753 35.6942 288.5 35.6942C288.247 35.6942 288.022 35.8347 287.896 36.0456L281.528 47.1496C281.402 47.3605 281.402 47.6416 281.528 47.8524C281.655 48.0632 281.88 48.2038 282.133 48.2038H294.867C295.12 48.2038 295.345 48.0632 295.472 47.8524C295.598 47.6275 295.598 47.3605 295.472 47.1496Z" fill="#383A48"/>
<path d="M303.301 43.4951H273.699L288.5 17.6887L303.301 43.4951Z" fill="#7FD6C2"/>
<path d="M303.301 44.1979H273.699C273.446 44.1979 273.221 44.0574 273.095 43.8465C272.968 43.6357 272.968 43.3686 273.095 43.1437L287.896 17.3514C288.022 17.1265 288.247 17 288.5 17C288.753 17 288.978 17.1406 289.104 17.3514L303.905 43.1437C304.032 43.3546 304.032 43.6357 303.905 43.8465C303.779 44.0574 303.554 44.1979 303.301 44.1979ZM274.908 42.7923H302.078L288.486 19.1084L274.908 42.7923Z" fill="#383A48"/>
<path d="M21 112L330 112" stroke="#383A48" stroke-width="1.5" stroke-linecap="round"/>
</svg>
