<svg width="31" height="96" viewBox="0 0 31 96" fill="none" xmlns="http://www.w3.org/2000/svg">
<path d="M15.4999 95.7057C15.1063 95.7057 14.7971 95.3965 14.7971 95.0029V39.4124C14.7971 39.0188 15.1063 38.7096 15.4999 38.7096C15.8935 38.7096 16.2027 39.0188 16.2027 39.4124V95.0029C16.2027 95.3824 15.8794 95.7057 15.4999 95.7057Z" fill="#383A48"/>
<path d="M30.3007 45.1893H0.699219L9.13268 30.501L15.4999 19.397L21.8672 30.501L30.3007 45.1893Z" fill="#7FD6C2"/>
<path d="M30.3007 45.8921H0.699277C0.446273 45.8921 0.221378 45.7515 0.0948764 45.5407C-0.0316255 45.3299 -0.0316255 45.0628 0.0948764 44.8379L14.8956 19.0456C15.0221 18.8207 15.247 18.6942 15.5 18.6942C15.753 18.6942 15.9779 18.8347 16.1044 19.0456L30.9051 44.8379C31.0316 45.0487 31.0316 45.3299 30.9051 45.5407C30.7786 45.7656 30.5537 45.8921 30.3007 45.8921ZM1.90807 44.4865H29.0779L15.4859 20.8025L1.90807 44.4865Z" fill="#383A48"/>
<path d="M27.1521 43.4183C27.5403 43.4183 27.8549 43.1036 27.8549 42.7155C27.8549 42.3273 27.5403 42.0127 27.1521 42.0127C26.764 42.0127 26.4493 42.3273 26.4493 42.7155C26.4493 43.1036 26.764 43.4183 27.1521 43.4183Z" fill="#383A48"/>
<path d="M23.6945 36.4888C24.0826 36.4888 24.3973 36.1741 24.3973 35.786C24.3973 35.3978 24.0826 35.0832 23.6945 35.0832C23.3063 35.0832 22.9917 35.3978 22.9917 35.786C22.9917 36.1741 23.3063 36.4888 23.6945 36.4888Z" fill="#383A48"/>
<path d="M23.6945 39.9606C24.0826 39.9606 24.3973 39.6459 24.3973 39.2578C24.3973 38.8696 24.0826 38.555 23.6945 38.555C23.3063 38.555 22.9917 38.8696 22.9917 39.2578C22.9917 39.6459 23.3063 39.9606 23.6945 39.9606Z" fill="#383A48"/>
<path d="M23.6945 43.4183C24.0826 43.4183 24.3973 43.1036 24.3973 42.7155C24.3973 42.3273 24.0826 42.0127 23.6945 42.0127C23.3063 42.0127 22.9917 42.3273 22.9917 42.7155C22.9917 43.1036 23.3063 43.4183 23.6945 43.4183Z" fill="#383A48"/>
<path d="M20.2228 29.5593C20.6109 29.5593 20.9256 29.2446 20.9256 28.8565C20.9256 28.4684 20.6109 28.1537 20.2228 28.1537C19.8347 28.1537 19.52 28.4684 19.52 28.8565C19.52 29.2446 19.8347 29.5593 20.2228 29.5593Z" fill="#383A48"/>
<path d="M20.2228 33.017C20.6109 33.017 20.9256 32.7023 20.9256 32.3142C20.9256 31.9261 20.6109 31.6114 20.2228 31.6114C19.8347 31.6114 19.52 31.9261 19.52 32.3142C19.52 32.7023 19.8347 33.017 20.2228 33.017Z" fill="#383A48"/>
<path d="M20.2228 36.4888C20.6109 36.4888 20.9256 36.1741 20.9256 35.786C20.9256 35.3978 20.6109 35.0832 20.2228 35.0832C19.8347 35.0832 19.52 35.3978 19.52 35.786C19.52 36.1741 19.8347 36.4888 20.2228 36.4888Z" fill="#383A48"/>
<path d="M20.2228 39.9606C20.6109 39.9606 20.9256 39.6459 20.9256 39.2578C20.9256 38.8696 20.6109 38.555 20.2228 38.555C19.8347 38.555 19.52 38.8696 19.52 39.2578C19.52 39.6459 19.8347 39.9606 20.2228 39.9606Z" fill="#383A48"/>
<path d="M20.2228 43.4183C20.6109 43.4183 20.9256 43.1036 20.9256 42.7155C20.9256 42.3273 20.6109 42.0127 20.2228 42.0127C19.8347 42.0127 19.52 42.3273 19.52 42.7155C19.52 43.1036 19.8347 43.4183 20.2228 43.4183Z" fill="#383A48"/>
<path d="M16.7509 26.0875C17.139 26.0875 17.4537 25.7729 17.4537 25.3847C17.4537 24.9966 17.139 24.6819 16.7509 24.6819C16.3627 24.6819 16.0481 24.9966 16.0481 25.3847C16.0481 25.7729 16.3627 26.0875 16.7509 26.0875Z" fill="#383A48"/>
<path d="M16.7509 29.5593C17.139 29.5593 17.4537 29.2446 17.4537 28.8565C17.4537 28.4684 17.139 28.1537 16.7509 28.1537C16.3627 28.1537 16.0481 28.4684 16.0481 28.8565C16.0481 29.2446 16.3627 29.5593 16.7509 29.5593Z" fill="#383A48"/>
<path d="M16.7509 33.017C17.139 33.017 17.4537 32.7023 17.4537 32.3142C17.4537 31.9261 17.139 31.6114 16.7509 31.6114C16.3627 31.6114 16.0481 31.9261 16.0481 32.3142C16.0481 32.7023 16.3627 33.017 16.7509 33.017Z" fill="#383A48"/>
<path d="M16.7509 36.4888C17.139 36.4888 17.4537 36.1741 17.4537 35.786C17.4537 35.3978 17.139 35.0832 16.7509 35.0832C16.3627 35.0832 16.0481 35.3978 16.0481 35.786C16.0481 36.1741 16.3627 36.4888 16.7509 36.4888Z" fill="#383A48"/>
<path d="M16.7509 39.9606C17.139 39.9606 17.4537 39.6459 17.4537 39.2578C17.4537 38.8696 17.139 38.555 16.7509 38.555C16.3627 38.555 16.0481 38.8696 16.0481 39.2578C16.0481 39.6459 16.3627 39.9606 16.7509 39.9606Z" fill="#383A48"/>
<path d="M16.7509 43.4183C17.139 43.4183 17.4537 43.1036 17.4537 42.7155C17.4537 42.3273 17.139 42.0127 16.7509 42.0127C16.3627 42.0127 16.0481 42.3273 16.0481 42.7155C16.0481 43.1036 16.3627 43.4183 16.7509 43.4183Z" fill="#383A48"/>
<path d="M13.2932 26.0875C13.6814 26.0875 13.996 25.7729 13.996 25.3847C13.996 24.9966 13.6814 24.6819 13.2932 24.6819C12.9051 24.6819 12.5905 24.9966 12.5905 25.3847C12.5905 25.7729 12.9051 26.0875 13.2932 26.0875Z" fill="#383A48"/>
<path d="M13.2932 29.5593C13.6814 29.5593 13.996 29.2446 13.996 28.8565C13.996 28.4684 13.6814 28.1537 13.2932 28.1537C12.9051 28.1537 12.5905 28.4684 12.5905 28.8565C12.5905 29.2446 12.9051 29.5593 13.2932 29.5593Z" fill="#383A48"/>
<path d="M13.2932 33.017C13.6814 33.017 13.996 32.7023 13.996 32.3142C13.996 31.9261 13.6814 31.6114 13.2932 31.6114C12.9051 31.6114 12.5905 31.9261 12.5905 32.3142C12.5905 32.7023 12.9051 33.017 13.2932 33.017Z" fill="#383A48"/>
<path d="M13.2932 36.4888C13.6814 36.4888 13.996 36.1741 13.996 35.786C13.996 35.3978 13.6814 35.0832 13.2932 35.0832C12.9051 35.0832 12.5905 35.3978 12.5905 35.786C12.5905 36.1741 12.9051 36.4888 13.2932 36.4888Z" fill="#383A48"/>
<path d="M13.2932 39.9606C13.6814 39.9606 13.996 39.6459 13.996 39.2578C13.996 38.8696 13.6814 38.555 13.2932 38.555C12.9051 38.555 12.5905 38.8696 12.5905 39.2578C12.5905 39.6459 12.9051 39.9606 13.2932 39.9606Z" fill="#383A48"/>
<path d="M13.2932 43.4183C13.6814 43.4183 13.996 43.1036 13.996 42.7155C13.996 42.3273 13.6814 42.0127 13.2932 42.0127C12.9051 42.0127 12.5905 42.3273 12.5905 42.7155C12.5905 43.1036 12.9051 43.4183 13.2932 43.4183Z" fill="#383A48"/>
<path d="M9.82144 33.017C10.2096 33.017 10.5242 32.7023 10.5242 32.3142C10.5242 31.9261 10.2096 31.6114 9.82144 31.6114C9.4333 31.6114 9.11865 31.9261 9.11865 32.3142C9.11865 32.7023 9.4333 33.017 9.82144 33.017Z" fill="#383A48"/>
<path d="M9.82144 36.4888C10.2096 36.4888 10.5242 36.1741 10.5242 35.786C10.5242 35.3978 10.2096 35.0832 9.82144 35.0832C9.4333 35.0832 9.11865 35.3978 9.11865 35.786C9.11865 36.1741 9.4333 36.4888 9.82144 36.4888Z" fill="#383A48"/>
<path d="M9.82144 39.9606C10.2096 39.9606 10.5242 39.6459 10.5242 39.2578C10.5242 38.8696 10.2096 38.555 9.82144 38.555C9.4333 38.555 9.11865 38.8696 9.11865 39.2578C9.11865 39.6459 9.4333 39.9606 9.82144 39.9606Z" fill="#383A48"/>
<path d="M9.82144 43.4183C10.2096 43.4183 10.5242 43.1036 10.5242 42.7155C10.5242 42.3273 10.2096 42.0127 9.82144 42.0127C9.4333 42.0127 9.11865 42.3273 9.11865 42.7155C9.11865 43.1036 9.4333 43.4183 9.82144 43.4183Z" fill="#383A48"/>
<path d="M6.34964 36.4888C6.73778 36.4888 7.05243 36.1741 7.05243 35.786C7.05243 35.3978 6.73778 35.0832 6.34964 35.0832C5.9615 35.0832 5.64685 35.3978 5.64685 35.786C5.64685 36.1741 5.9615 36.4888 6.34964 36.4888Z" fill="#383A48"/>
<path d="M6.34964 39.9606C6.73778 39.9606 7.05243 39.6459 7.05243 39.2578C7.05243 38.8696 6.73778 38.555 6.34964 38.555C5.9615 38.555 5.64685 38.8696 5.64685 39.2578C5.64685 39.6459 5.9615 39.9606 6.34964 39.9606Z" fill="#383A48"/>
<path d="M6.34964 43.4183C6.73778 43.4183 7.05243 43.1036 7.05243 42.7155C7.05243 42.3273 6.73778 42.0127 6.34964 42.0127C5.9615 42.0127 5.64685 42.3273 5.64685 42.7155C5.64685 43.1036 5.9615 43.4183 6.34964 43.4183Z" fill="#383A48"/>
<path d="M2.892 43.4183C3.28014 43.4183 3.59479 43.1036 3.59479 42.7155C3.59479 42.3273 3.28014 42.0127 2.892 42.0127C2.50386 42.0127 2.18921 42.3273 2.18921 42.7155C2.18921 43.1036 2.50386 43.4183 2.892 43.4183Z" fill="#383A48"/>
<path d="M22.4717 30.1496L16.1044 19.0456C15.9779 18.8207 15.753 18.6942 15.5 18.6942C15.247 18.6942 15.0221 18.8347 14.8956 19.0456L8.52835 30.1496C8.40185 30.3605 8.40185 30.6416 8.52835 30.8524C8.65485 31.0632 8.87974 31.2038 9.13275 31.2038H21.8673C22.1203 31.2038 22.3452 31.0632 22.4717 30.8524C22.5982 30.6275 22.5982 30.3605 22.4717 30.1496Z" fill="#383A48"/>
<path d="M30.3007 26.4951H0.699219L15.4999 0.688736L30.3007 26.4951Z" fill="#7FD6C2"/>
<path d="M30.3007 27.1979H0.699277C0.446273 27.1979 0.221378 27.0574 0.0948764 26.8465C-0.0316255 26.6357 -0.0316255 26.3686 0.0948764 26.1437L14.8956 0.351394C15.0221 0.126502 15.247 0 15.5 0C15.753 0 15.9779 0.140558 16.1044 0.351394L30.9051 26.1437C31.0316 26.3546 31.0316 26.6357 30.9051 26.8465C30.7786 27.0574 30.5537 27.1979 30.3007 27.1979ZM1.90807 25.7923H29.0779L15.4859 2.10837L1.90807 25.7923Z" fill="#383A48"/>
</svg>
