<svg width="24" height="71" viewBox="0 0 24 71" fill="none" xmlns="http://www.w3.org/2000/svg">
<path d="M18.9152 20.4715C21.4052 18.4342 22.9897 15.3218 22.9897 11.8556C22.9897 5.70146 17.9957 0.707382 11.8415 0.707382C5.68732 0.707382 0.693237 5.70146 0.693237 11.8556C0.693237 15.3218 2.27776 18.4342 4.76773 20.4715C2.27776 22.5087 0.693237 25.6212 0.693237 29.0873C0.693237 35.2415 5.68732 40.2356 11.8415 40.2356C17.9957 40.2356 22.9897 35.2415 22.9897 29.0873C22.9897 25.6212 21.4052 22.5229 18.9152 20.4715Z" fill="#CEFBF0"/>
<path d="M11.8556 40.9429C5.31947 40.9429 0 35.6235 0 29.0873C0 25.8051 1.34401 22.7068 3.7208 20.4715C1.34401 18.2362 0 15.1378 0 11.8556C0 5.31947 5.31947 0 11.8556 0C18.3918 0 23.7112 5.31947 23.7112 11.8556C23.7112 15.1378 22.3672 18.2362 19.9905 20.4715C22.3672 22.7068 23.7112 25.8051 23.7112 29.0873C23.6971 35.6235 18.3776 40.9429 11.8556 40.9429ZM11.8556 1.4289C6.09758 1.4289 1.41475 6.11172 1.41475 11.8698C1.41475 15.0105 2.80121 17.9532 5.23458 19.9339C5.40435 20.0612 5.48924 20.2734 5.48924 20.4856C5.48924 20.6978 5.39021 20.8959 5.23458 21.0374C2.80121 23.0322 1.41475 25.9749 1.41475 29.1015C1.41475 34.8595 6.09758 39.5423 11.8556 39.5423C17.6137 39.5423 22.2824 34.8453 22.2824 29.0873C22.2824 25.9466 20.8959 23.0039 18.4625 21.0232C18.2927 20.8959 18.2079 20.6837 18.2079 20.4715C18.2079 20.2593 18.3069 20.0612 18.4625 19.9197C20.8959 17.9249 22.2824 14.9822 22.2824 11.8556C22.2824 6.09758 17.5995 1.4289 11.8556 1.4289Z" fill="#383A48"/>
<path d="M11.8556 70.1151C11.4594 70.1151 11.1482 69.8039 11.1482 69.4077V10.1013C11.1482 9.7052 11.4594 9.39395 11.8556 9.39395C12.2517 9.39395 12.5629 9.7052 12.5629 10.1013V69.4077C12.5629 69.7897 12.2376 70.1151 11.8556 70.1151Z" fill="#383A48"/>
<path d="M11.8556 32.9354C11.6717 32.9354 11.4877 32.8647 11.3463 32.7091L7.38496 28.5497C7.11616 28.2667 7.13031 27.814 7.41326 27.5452C7.69621 27.2764 8.14892 27.2906 8.41773 27.5735L12.379 31.7329C12.6478 32.0158 12.6337 32.4686 12.3507 32.7374C12.1951 32.8788 12.0253 32.9354 11.8556 32.9354Z" fill="#383A48"/>
<path d="M11.8556 32.9354C11.6858 32.9354 11.5019 32.8647 11.3746 32.7374C11.0916 32.4686 11.0775 32.0158 11.3463 31.7329L15.3076 27.5735C15.5764 27.2906 16.0291 27.2764 16.312 27.5452C16.595 27.814 16.6091 28.2667 16.3403 28.5497L12.379 32.7091C12.2234 32.8647 12.0395 32.9354 11.8556 32.9354Z" fill="#383A48"/>
<path d="M11.8556 18.2079C11.6717 18.2079 11.4877 18.1371 11.3463 17.9815L7.38496 13.8221C7.11616 13.5392 7.13031 13.0865 7.41326 12.8177C7.69621 12.5489 8.14892 12.563 8.41773 12.8459L12.379 17.0053C12.6478 17.2883 12.6337 17.741 12.3507 18.0098C12.1951 18.1371 12.0253 18.2079 11.8556 18.2079Z" fill="#383A48"/>
<path d="M11.8556 18.2079C11.6858 18.2079 11.5019 18.1371 11.3746 18.0098C11.0916 17.741 11.0775 17.2883 11.3463 17.0053L15.3076 12.8459C15.5764 12.563 16.0291 12.5489 16.312 12.8177C16.595 13.0865 16.6091 13.5392 16.3403 13.8221L12.379 17.9815C12.2234 18.1371 12.0395 18.2079 11.8556 18.2079Z" fill="#383A48"/>
</svg>
