<svg width="19" height="48" viewBox="0 0 19 48" fill="none" xmlns="http://www.w3.org/2000/svg">
<path d="M9.43641 32.1998C4.61211 32.1998 0.707397 28.295 0.707397 23.4707V9.43639C0.707397 4.61209 4.61211 0.707367 9.43641 0.707367C14.2607 0.707367 18.1654 4.61209 18.1654 9.43639V23.4707C18.1654 28.295 14.2607 32.1998 9.43641 32.1998Z" fill="#F6E049"/>
<path d="M9.43639 32.9071C4.2301 32.9071 0 28.677 0 23.4707V9.4364C0 4.23011 4.2301 0 9.43639 0C14.6427 0 18.8728 4.23011 18.8728 9.4364V23.4707C18.8728 28.677 14.6427 32.9071 9.43639 32.9071ZM9.43639 1.42891C5.02236 1.42891 1.41475 5.02237 1.41475 9.45054V23.4849C1.41475 27.8989 5.00822 31.5065 9.43639 31.5065C13.8504 31.5065 17.458 27.9131 17.458 23.4849V9.45054C17.458 5.02237 13.8646 1.42891 9.43639 1.42891Z" fill="#383A48"/>
<path d="M9.43638 47.8894C9.04025 47.8894 8.729 47.5781 8.729 47.182V19.0426C8.729 18.6464 9.04025 18.3352 9.43638 18.3352C9.83251 18.3352 10.1438 18.6464 10.1438 19.0426V47.182C10.1438 47.564 9.83251 47.8894 9.43638 47.8894Z" fill="#383A48"/>
</svg>
